<svg xmlns="http://www.w3.org/2000/svg" viewBox="0 0 16 12"><defs><style>.cls-1{fill:#fff;fill-rule:evenodd;}</style></defs><g id="레이어_2" data-name="레이어 2"><g id="레이어_1-2" data-name="레이어 1"><path class="cls-1" d="M6,10.5a.5.5,0,0,0,.5.5h8a.5.5,0,0,0,.5-.5v-9a.5.5,0,0,0-.5-.5h-8a.5.5,0,0,0-.5.5v2a.5.5,0,0,1-1,0v-2A1.5,1.5,0,0,1,6.5,0h8A1.5,1.5,0,0,1,16,1.5v9A1.5,1.5,0,0,1,14.5,12h-8A1.5,1.5,0,0,1,5,10.5v-2a.5.5,0,0,1,1,0Z"/><path class="cls-1" d="M.15,6.35a.48.48,0,0,1,0-.7h0l3-3a.49.49,0,0,1,.7.7L1.71,5.5H10.5a.5.5,0,0,1,0,1H1.71L3.85,8.65a.49.49,0,0,1-.7.7Z"/></g></g></svg>