<?xml version="1.0" encoding="utf-8"?>
<!-- Generator: Adobe Illustrator 25.1.0, SVG Export Plug-In . SVG Version: 6.00 Build 0)  -->
<svg version="1.1" id="레이어_1" xmlns:sketch="http://www.bohemiancoding.com/sketch/ns"
	 xmlns="http://www.w3.org/2000/svg" xmlns:xlink="http://www.w3.org/1999/xlink" x="0px" y="0px" viewBox="0 0 46 46"
	 style="enable-background:new 0 0 46 46;" xml:space="preserve">
<style type="text/css">
	.st0{opacity:0;filter:url(#filter-1);}
	.st1{fill-rule:evenodd;clip-rule:evenodd;fill:#FFFFFF;}
	.st2{fill-rule:evenodd;clip-rule:evenodd;fill:#4285F4;}
	.st3{fill-rule:evenodd;clip-rule:evenodd;fill:#34A853;}
	.st4{fill-rule:evenodd;clip-rule:evenodd;fill:#FBBC05;}
	.st5{fill-rule:evenodd;clip-rule:evenodd;fill:#EA4335;}
	.st6{fill:none;}
	.st7{opacity:0;}
</style>
<filter  filterUnits="objectBoundingBox" height="200%" id="filter-1" width="200%" x="-50%" y="-50%">
	<feOffset  dx="0" dy="1" in="SourceAlpha" result="shadowOffsetOuter1"></feOffset>
	<feGaussianBlur  in="shadowOffsetOuter1" result="shadowBlurOuter1" stdDeviation="0.5"></feGaussianBlur>
	
		<feColorMatrix  in="shadowBlurOuter1" result="shadowMatrixOuter1" type="matrix" values="0 0 0 0 0   0 0 0 0 0   0 0 0 0 0  0 0 0 0.168 0">
		</feColorMatrix>
	<feOffset  dx="0" dy="0" in="SourceAlpha" result="shadowOffsetOuter2"></feOffset>
	<feGaussianBlur  in="shadowOffsetOuter2" result="shadowBlurOuter2" stdDeviation="0.5"></feGaussianBlur>
	
		<feColorMatrix  in="shadowBlurOuter2" result="shadowMatrixOuter2" type="matrix" values="0 0 0 0 0   0 0 0 0 0   0 0 0 0 0  0 0 0 0.084 0">
		</feColorMatrix>
	<feMerge>
		<feMergeNode  in="shadowMatrixOuter1"></feMergeNode>
		<feMergeNode  in="shadowMatrixOuter2"></feMergeNode>
		<feMergeNode  in="SourceGraphic"></feMergeNode>
	</feMerge>
</filter>
<desc>Created with Sketch.</desc>
<g id="_x39_-PATCH" transform="translate(-608.000000, -160.000000)" sketch:type="MSArtboardGroup">
</g>
<g>
	<g id="button" transform="translate(4.000000, 4.000000)" sketch:type="MSLayerGroup" class="st0">
		<g id="button-bg_1_">
			<g sketch:type="MSShapeGroup">
				<path id="path-2_4_" class="st1" d="M1-1h36c1.1,0,2,0.9,2,2v36c0,1.1-0.9,2-2,2H1c-1.1,0-2-0.9-2-2V1C-1-0.1-0.1-1,1-1z"/>
			</g>
		</g>
	</g>
	<g id="logo_googleg_48dp" transform="translate(15.000000, 15.000000)" sketch:type="MSLayerGroup">
		<path id="Shape" sketch:type="MSShapeGroup" class="st2" d="M16.6,8.2c0-0.6-0.1-1.3-0.2-1.8H8v3.5h4.8C12.6,11,12,11.9,11,12.6
			v2.3H14C15.7,13.3,16.6,10.9,16.6,8.2L16.6,8.2z"/>
		<path id="Shape_1_" sketch:type="MSShapeGroup" class="st3" d="M8,17c2.4,0,4.5-0.8,6-2.2L11,12.6c-0.8,0.5-1.8,0.9-3,0.9
			c-2.3,0-4.3-1.6-5-3.7H0V12C1.4,15,4.5,17,8,17L8,17z"/>
		<path id="Shape_2_" sketch:type="MSShapeGroup" class="st4" d="M3,9.7C2.8,9.2,2.7,8.6,2.7,8S2.8,6.8,3,6.3V4H0
			c-0.6,1.2-1,2.6-1,4s0.3,2.8,1,4L3,9.7L3,9.7z"/>
		<path id="Shape_3_" sketch:type="MSShapeGroup" class="st5" d="M8,2.6c1.3,0,2.5,0.5,3.4,1.3L14,1.3C12.5-0.1,10.4-1,8-1
			C4.5-1,1.4,1,0,4l3,2.3C3.7,4.2,5.7,2.6,8,2.6L8,2.6z"/>
		<path id="Shape_4_" sketch:type="MSShapeGroup" class="st6" d="M-1-1h18v18H-1V-1z"/>
	</g>
	<g id="handles_square" sketch:type="MSLayerGroup" class="st7">
	</g>
</g>
</svg>
